<svg xmlns="http://www.w3.org/2000/svg" version="1.1" xmlns:xlink="http://www.w3.org/1999/xlink" xmlns:svgjs="http://svgjs.dev/svgjs" width="1000" height="1106" viewBox="0 0 1000 1106"><g transform="matrix(1,0,0,1,-0.11790575427176009,1.1368683772161603e-13)"><svg viewBox="0 0 253 280" data-background-color="#2a2e46" preserveAspectRatio="xMidYMid meet" height="1106" width="1000" xmlns="http://www.w3.org/2000/svg" xmlns:xlink="http://www.w3.org/1999/xlink"><g id="tight-bounds" transform="matrix(1,0,0,1,0.029830155830751437,-2.842170943040401e-14)"><svg viewBox="0 0 252.9403396883385 280" height="280" width="252.9403396883385"><g><svg viewBox="0 0 278.2696 308.03899487129615" height="280" width="252.9403396883385"><g><svg viewBox="0 0 278.2696 308.03899487129615" height="308.03899487129615" width="278.2696"><g id="textblocktransform"><svg viewBox="0 0 278.2696 308.03899487129615" height="308.03899487129615" width="278.2696" id="textblock"><g><svg viewBox="0 0 278.2696 278.2696" height="278.2696" width="278.2696"><g transform="matrix(1,0,0,1,93.04712031678012,89.94321971048299)"><svg viewBox="0 0 92.17535936643978 98.38316057903405" height="98.38316057903405" width="92.17535936643978"><g><svg xmlns="http://www.w3.org/2000/svg" xmlns:xlink="http://www.w3.org/1999/xlink" version="1.1" x="0" y="0" viewBox="12.166999816894531 9.618999481201172 75.66699981689453 80.76300048828125" enable-background="new 0 0 100 100" xml:space="preserve" height="98.38316057903405" width="92.17535936643978" class="icon-o-0" data-fill-palette-color="accent" id="o-0"><g fill="#7c95df" data-fill-palette-color="accent"><path fill="none" d="M84.833 23.285c0-3.125-2.542-5.667-5.666-5.667-3.125 0-5.667 2.542-5.667 5.667 0 1.836 0.896 3.566 2.397 4.629 0.959 0.679 2.09 1.038 3.27 1.038C82.291 28.952 84.833 26.41 84.833 23.285z"></path><path fill="none" d="M20.833 49.494c-3.124 0-5.666 2.542-5.666 5.667s2.542 5.666 5.666 5.666c1.18 0 2.311-0.358 3.269-1.037 1.502-1.063 2.398-2.793 2.398-4.629C26.5 52.036 23.958 49.494 20.833 49.494z"></path><path fill="none" d="M53.934 22.914c1.502-1.063 2.398-2.793 2.398-4.629 0-3.125-2.542-5.667-5.667-5.667-3.124 0-5.666 2.542-5.666 5.667s2.542 5.667 5.666 5.667C51.845 23.952 52.976 23.593 53.934 22.914z"></path><path fill="none" d="M26.5 23.285c0-3.125-2.542-5.667-5.667-5.667-3.124 0-5.666 2.542-5.666 5.667s2.542 5.667 5.666 5.667c1.18 0 2.311-0.359 3.269-1.038C25.604 26.852 26.5 25.121 26.5 23.285z"></path><path fill="none" d="M45 81.716c0 3.125 2.542 5.666 5.666 5.666 1.18 0 2.311-0.358 3.269-1.037 1.502-1.063 2.398-2.793 2.398-4.629 0-3.125-2.542-5.667-5.667-5.667C47.542 76.049 45 78.591 45 81.716z"></path><path fill="none" d="M79.167 49.494c-3.125 0-5.667 2.542-5.667 5.667 0 1.836 0.896 3.566 2.397 4.629 0.959 0.679 2.09 1.037 3.27 1.037 3.124 0 5.666-2.541 5.666-5.666S82.291 49.494 79.167 49.494z"></path><path fill="none" d="M50.666 38.009c-6.586 0-11.943 5.357-11.943 11.943s5.357 11.943 11.943 11.943 11.943-5.357 11.943-11.943S57.252 38.009 50.666 38.009z"></path><path d="M79.167 46.494c-4.368 0-7.981 3.251-8.572 7.458h-3.482c0.313-1.285 0.497-2.62 0.497-4 0-2.876-0.725-5.584-1.994-7.959h15.051v-10.18c4.065-0.714 7.167-4.262 7.167-8.528 0-4.779-3.888-8.667-8.666-8.667-4.779 0-8.667 3.888-8.667 8.667 0 2.808 1.37 5.454 3.664 7.077 1.055 0.747 2.247 1.229 3.502 1.449v7.182H63.565c-2.806-3.297-6.845-5.507-11.4-5.908v-6.273c1.255-0.219 2.447-0.702 3.502-1.448 2.295-1.624 3.665-4.271 3.665-7.078 0-4.779-3.888-8.667-8.667-8.667-4.778 0-8.666 3.888-8.666 8.667 0 4.267 3.102 7.814 7.166 8.527v6.272c-4.555 0.402-8.593 2.611-11.398 5.908H22.334v-7.182c1.255-0.22 2.447-0.702 3.501-1.448 2.295-1.624 3.665-4.271 3.665-7.078 0-4.779-3.888-8.667-8.667-8.667-4.778 0-8.666 3.888-8.666 8.667 0 4.267 3.102 7.814 7.167 8.528v10.18h16.383c-1.27 2.375-1.994 5.083-1.994 7.959 0 1.38 0.184 2.715 0.497 4h-4.814c-0.591-4.207-4.204-7.458-8.572-7.458-4.778 0-8.666 3.888-8.666 8.667 0 4.778 3.888 8.666 8.666 8.666 1.805 0 3.534-0.549 5.002-1.588 1.798-1.272 3.016-3.174 3.465-5.287h5.955c2.473 5.422 7.712 9.32 13.911 9.867v6.369C45.102 73.901 42 77.449 42 81.716c0 4.778 3.888 8.666 8.666 8.666 1.805 0 3.534-0.549 5.002-1.588 2.295-1.625 3.665-4.271 3.665-7.078 0-4.268-3.102-7.814-7.167-8.527v-6.369c6.199-0.547 11.438-4.445 13.911-9.867H70.7c0.449 2.113 1.667 4.015 3.464 5.286 1.469 1.04 3.198 1.589 5.003 1.589 4.778 0 8.666-3.888 8.666-8.666C87.833 50.382 83.945 46.494 79.167 46.494zM75.897 27.914c-1.501-1.063-2.397-2.793-2.397-4.629 0-3.125 2.542-5.667 5.667-5.667 3.124 0 5.666 2.542 5.666 5.667s-2.542 5.667-5.666 5.667C77.987 28.952 76.856 28.593 75.897 27.914zM15.167 23.285c0-3.125 2.542-5.667 5.666-5.667 3.125 0 5.667 2.542 5.667 5.667 0 1.836-0.896 3.566-2.398 4.629-0.958 0.679-2.089 1.038-3.269 1.038C17.709 28.952 15.167 26.41 15.167 23.285zM24.102 59.79c-0.958 0.679-2.089 1.037-3.269 1.037-3.124 0-5.666-2.541-5.666-5.666s2.542-5.667 5.666-5.667c3.125 0 5.667 2.542 5.667 5.667C26.5 56.997 25.604 58.728 24.102 59.79zM44.999 18.285c0-3.125 2.542-5.667 5.666-5.667 3.125 0 5.667 2.542 5.667 5.667 0 1.836-0.896 3.566-2.398 4.629-0.958 0.679-2.089 1.038-3.269 1.038C47.541 23.952 44.999 21.41 44.999 18.285zM56.333 81.716c0 1.836-0.896 3.566-2.398 4.629-0.958 0.679-2.089 1.037-3.269 1.037-3.124 0-5.666-2.541-5.666-5.666s2.542-5.667 5.666-5.667C53.791 76.049 56.333 78.591 56.333 81.716zM50.666 61.896c-6.586 0-11.943-5.357-11.943-11.943s5.357-11.943 11.943-11.943 11.943 5.357 11.943 11.943S57.252 61.896 50.666 61.896zM79.167 60.827c-1.18 0-2.311-0.358-3.27-1.037-1.501-1.063-2.397-2.793-2.397-4.629 0-3.125 2.542-5.667 5.667-5.667 3.124 0 5.666 2.542 5.666 5.667S82.291 60.827 79.167 60.827z" fill="#7c95df" data-fill-palette-color="accent"></path></g></svg></g></svg></g><g><path d="M37.722 177.166C38.453 179.341 38.742 181.337 38.589 183.156 38.443 184.973 37.56 186.708 35.941 188.361 34.323 190.014 31.742 191.435 28.201 192.627V192.627C23.159 194.322 19.319 194.522 16.682 193.228 14.042 191.927 12.213 189.764 11.196 186.739V186.739L9.317 181.153 36.04 172.166ZM35.109 178.782L34.39 176.646 13.291 183.741 14.061 186.029C14.495 187.32 15.158 188.343 16.049 189.095 16.934 189.85 18.256 190.254 20.014 190.308 21.774 190.369 24.09 189.916 26.964 188.949V188.949C29.888 187.966 32.004 186.914 33.311 185.794 34.62 184.681 35.361 183.569 35.535 182.458 35.702 181.35 35.56 180.124 35.109 178.782ZM55.158 209.866L57.435 212.807 35.144 230.07 32.867 227.129ZM85.143 235.051C86.363 235.822 87.304 236.716 87.967 237.733 88.63 238.75 89.148 239.99 89.521 241.452V241.452L86.671 242.117C86.343 241.005 85.949 240.111 85.488 239.434 85.03 238.752 84.377 238.142 83.528 237.606V237.606C81.932 236.597 80.167 236.515 78.232 237.361 76.298 238.207 74.216 240.392 71.989 243.915V243.915C70.43 246.383 69.389 248.446 68.866 250.106 68.353 251.764 68.281 253.13 68.648 254.204 69.021 255.281 69.784 256.184 70.936 256.912V256.912C72.178 257.697 73.539 258.07 75.019 258.03V258.03L79.698 250.628 76.444 248.572 77.713 245.799 84.356 249.998 77.098 261.48C74.181 261.602 71.57 260.935 69.266 259.479V259.479C63.663 255.937 63.463 250.049 68.668 241.816V241.816C70.373 239.118 72.199 237.095 74.145 235.745 76.097 234.399 78.015 233.692 79.898 233.624 81.776 233.552 83.524 234.028 85.143 235.051ZM115.651 247.891L119.269 248.753 112.737 276.18 109.118 275.318ZM146.194 250.204L149.897 249.849 152.279 274.658 161.611 273.762 161.516 277.057 148.888 278.27ZM182.081 241.552L193.766 236.028 194.675 238.908 186.723 242.667 190.725 251.134 197.641 247.865 198.919 250.57 192.004 253.839 196.215 262.747 204.69 258.741 205.969 261.446 194.13 267.042ZM224.883 208.681L245.314 228.11 241.898 231.702 218.516 221.44C220.013 222.635 221.336 223.714 222.484 224.677 223.642 225.64 225.042 226.903 226.685 228.465V228.465L236.29 237.599 233.892 240.121 213.461 220.693 216.869 217.108 240.288 227.404C239.916 227.197 239.023 226.509 237.611 225.341 236.204 224.168 234.927 223.036 233.78 221.945V221.945L222.484 211.203ZM239.496 181.272C240.313 179.128 241.358 177.403 242.632 176.095 243.9 174.785 245.684 174.006 247.984 173.759 250.284 173.511 253.18 174.053 256.671 175.383V175.383C261.642 177.277 264.734 179.562 265.949 182.238 267.161 184.92 267.198 187.752 266.062 190.734V190.734L263.963 196.242 237.617 186.202ZM242.54 181.685L241.738 183.791 262.539 191.718 263.398 189.463C263.883 188.189 264.021 186.979 263.811 185.831 263.607 184.686 262.843 183.534 261.52 182.376 260.2 181.211 258.123 180.088 255.29 179.008V179.008C252.407 177.91 250.105 177.378 248.384 177.412 246.666 177.44 245.387 177.828 244.547 178.575 243.714 179.325 243.045 180.361 242.54 181.685Z" fill="#ffffff" data-fill-palette-color="primary"></path><path d="M4.916 96.542C5.632 94.405 6.59 92.664 7.791 91.321 8.99 89.983 10.714 89.148 12.964 88.816 15.217 88.476 18.089 88.892 21.582 90.063V90.063C26.543 91.725 29.673 93.851 30.973 96.439 32.272 99.027 32.423 101.809 31.426 104.785V104.785L29.581 110.288 3.265 101.469ZM7.924 96.824L7.217 98.933 27.993 105.896 28.75 103.636C29.177 102.362 29.265 101.168 29.015 100.053 28.772 98.934 27.974 97.832 26.62 96.747 25.274 95.658 23.189 94.64 20.365 93.694V93.694C17.484 92.728 15.199 92.296 13.51 92.396 11.822 92.496 10.58 92.928 9.784 93.692 8.988 94.457 8.368 95.5 7.924 96.824ZM27.789 53.626L30.029 50.731 51.98 67.716 49.74 70.611ZM66.159 19.595C67.362 18.834 68.554 18.376 69.737 18.218 70.921 18.051 72.24 18.115 73.692 18.408V18.408L73.086 21.221C71.96 21.044 70.998 21.016 70.2 21.134 69.405 21.259 68.59 21.586 67.752 22.115V22.115C66.184 23.106 65.364 24.64 65.291 26.715 65.222 28.796 66.285 31.573 68.481 35.046V35.046C70.015 37.474 71.412 39.266 72.669 40.422 73.93 41.583 75.115 42.226 76.225 42.351 77.334 42.476 78.456 42.179 79.591 41.462V41.462C80.817 40.687 81.724 39.634 82.313 38.302V38.302L77.709 31.018 74.506 33.043 72.575 30.735 79.109 26.605 86.255 37.91C85.133 40.554 83.438 42.594 81.167 44.029V44.029C75.654 47.514 70.337 45.207 65.218 37.108V37.108C63.538 34.45 62.509 31.97 62.132 29.668 61.754 27.366 61.934 25.36 62.671 23.652 63.406 21.952 64.568 20.6 66.159 19.595ZM107.724 3.063L111.285 2.217 117.697 29.222 114.136 30.067ZM149.753 0L153.396 0.355 151.016 24.773 160.198 25.668 159.489 28.835 147.061 27.624ZM197.145 11.922L208.64 17.382 207.017 19.868 199.189 16.15 195.231 24.483 202.041 27.718 200.779 30.375 193.968 27.14 189.804 35.905 198.137 39.864 196.875 42.521 185.236 36.992ZM249.984 52.179L229.833 71.265 226.479 67.724 237.777 45.266C236.521 46.675 235.389 47.922 234.381 49.004 233.373 50.087 232.061 51.394 230.444 52.926V52.926L220.965 61.903 218.613 59.419 238.765 40.333 242.118 43.874 230.791 66.36C231.008 66.008 231.729 65.17 232.955 63.844 234.176 62.513 235.352 61.313 236.481 60.243V60.243L247.625 49.688ZM271.878 91.231C272.677 93.339 273.037 95.292 272.959 97.093 272.879 98.887 272.073 100.625 270.542 102.307 269.014 103.996 266.527 105.494 263.083 106.799V106.799C258.19 108.655 254.422 108.992 251.777 107.812 249.132 106.631 247.254 104.574 246.141 101.64V101.64L244.083 96.212 270.036 86.372ZM269.371 92.917L268.583 90.838 248.095 98.606 248.94 100.835C249.416 102.091 250.104 103.07 251.004 103.775 251.9 104.487 253.215 104.835 254.951 104.817 256.682 104.807 258.94 104.275 261.725 103.219V103.219C264.567 102.141 266.609 101.029 267.852 99.882 269.095 98.735 269.783 97.614 269.915 96.519 270.047 95.424 269.866 94.223 269.371 92.918Z" fill="#ffffff" data-fill-palette-color="primary"></path><path d="M3.689 142.293C3.689 136.344 8.511 131.522 14.46 131.522 20.408 131.522 25.23 136.344 25.23 142.293 25.23 148.241 20.408 153.063 14.46 153.063 8.511 153.063 3.689 148.241 3.689 142.293ZM253.465 142.293C253.465 136.344 258.287 131.522 264.235 131.522 270.183 131.522 275.005 136.344 275.005 142.293 275.005 148.241 270.183 153.063 264.235 153.063 258.287 153.063 253.465 148.241 253.465 142.293Z" fill="#ffffff" data-fill-palette-color="primary"></path></g></svg></g><g transform="matrix(1,0,0,1,53.1494936,296.01856000000004)"><svg viewBox="0 0 171.97061280000003 12.020434871296157" height="12.020434871296157" width="171.97061280000003"><g transform="matrix(1,0,0,1,0,0)"><svg width="171.97061280000003" viewBox="3.9000000953674316 -35.5 658.0199584960938 46" height="12.020434871296157" data-palette-color="#7c95df"><path d="M3.9 0L3.9-35.05 13.3-35.05Q18.95-35.05 21.93-31.95 24.9-28.85 24.9-23.7L24.9-23.7 24.9-10Q24.9 0 14.3 0L14.3 0 3.9 0ZM21.3-24.2Q21.3-27.95 19.13-29.78 16.95-31.6 13.8-31.6L13.8-31.6 7.5-31.6 7.5-3.25 13.5-3.25Q16.85-3.25 19.07-4.5 21.3-5.75 21.3-9.5L21.3-9.5 21.3-24.2ZM34.8-31.4Q33.95-31.4 33.32-32.02 32.7-32.65 32.7-33.45L32.7-33.45Q32.7-34.25 33.32-34.88 33.95-35.5 34.8-35.5L34.8-35.5Q35.6-35.5 36.2-34.9 36.8-34.3 36.8-33.45L36.8-33.45Q36.8-32.6 36.2-32 35.6-31.4 34.8-31.4L34.8-31.4ZM32.9 0L32.9-25.05 36.5-25.05 36.5 0 32.9 0ZM54.5 7.7Q57.9 6.75 57.9 2.9L57.9 2.9 57.9-2.25Q56.2 0.6 51.95 0.6L51.95 0.6Q47.55 0.6 45.09-1.8 42.65-4.2 42.65-8.8L42.65-8.8 42.65-16.25Q42.65-20.65 45.22-23.08 47.8-25.5 52.15-25.5L52.15-25.5Q54.15-25.5 55.67-24.83 57.2-24.15 58.05-22.85L58.05-22.85 58.2-25.05 61.5-25.05 61.5 3.2Q61.5 6.35 60.07 8.1 58.65 9.85 55.4 10.5L55.4 10.5 54.5 7.7ZM57.9-16.5Q57.9-19.25 56.22-20.68 54.55-22.1 51.95-22.1L51.95-22.1Q49.5-22.1 47.87-20.58 46.25-19.05 46.25-16L46.25-16 46.25-8.7Q46.25-5.85 47.75-4.33 49.25-2.8 51.95-2.8L51.95-2.8Q54.65-2.8 56.27-4.53 57.9-6.25 57.9-9.5L57.9-9.5 57.9-16.5ZM68.14-31.4Q67.29-31.4 66.67-32.02 66.04-32.65 66.04-33.45L66.04-33.45Q66.04-34.25 66.67-34.88 67.29-35.5 68.14-35.5L68.14-35.5Q68.94-35.5 69.54-34.9 70.14-34.3 70.14-33.45L70.14-33.45Q70.14-32.6 69.54-32 68.94-31.4 68.14-31.4L68.14-31.4ZM66.24 0L66.24-25.05 69.84-25.05 69.84 0 66.24 0ZM82.34 0.65Q79.14 0.05 77.74-1.75 76.34-3.55 76.34-6.6L76.34-6.6 76.34-35 79.99-35 79.99-25.05 85.59-25.05 84.39-21.65 79.99-21.65 79.99-6.6Q79.99-3.05 83.39-2.15L83.39-2.15 82.34 0.65ZM107.84 0Q102.44 0.55 100.04 0.55L100.04 0.55Q94.79 0.55 91.69-1.4 88.59-3.35 88.59-8.45L88.59-8.45 88.59-12.6Q88.59-17.55 92.04-19.25L92.04-19.25Q93.69-20.05 96.09-20.05L96.09-20.05Q98.29-20.05 100.54-19.38 102.79-18.7 104.24-17.65L104.24-17.65Q104.24-22.8 97.19-22.8L97.19-22.8 97.44-25.45Q102.24-25.45 104.51-23.93 106.79-22.4 107.31-20.3 107.84-18.2 107.84-14.9L107.84-14.9 107.84 0ZM104.24-14.4Q102.49-15.25 100.39-15.93 98.29-16.6 96.54-16.6L96.54-16.6Q92.19-16.6 92.19-12.3L92.19-12.3 92.19-8.4Q92.19-2.7 99.99-2.7L99.99-2.7Q101.54-2.7 104.24-3.05L104.24-3.05 104.24-14.4ZM113.54 0L113.54-35 117.14-35 117.14 0 113.54 0ZM138.93 0L138.93-35 142.53-35 142.53-3.25 156.98-3.25 156.98 0 138.93 0ZM178.13 0Q172.73 0.55 170.33 0.55L170.33 0.55Q165.08 0.55 161.98-1.4 158.88-3.35 158.88-8.45L158.88-8.45 158.88-12.6Q158.88-17.55 162.33-19.25L162.33-19.25Q163.98-20.05 166.38-20.05L166.38-20.05Q168.58-20.05 170.83-19.38 173.08-18.7 174.53-17.65L174.53-17.65Q174.53-22.8 167.48-22.8L167.48-22.8 167.73-25.45Q172.53-25.45 174.8-23.93 177.08-22.4 177.6-20.3 178.13-18.2 178.13-14.9L178.13-14.9 178.13 0ZM174.53-14.4Q172.78-15.25 170.68-15.93 168.58-16.6 166.83-16.6L166.83-16.6Q162.48-16.6 162.48-12.3L162.48-12.3 162.48-8.4Q162.48-2.7 170.28-2.7L170.28-2.7Q171.83-2.7 174.53-3.05L174.53-3.05 174.53-14.4ZM200.43-7.85Q200.43-5.3 199.38-3.55 198.33-1.8 196.53-0.9L196.53-0.9Q194.93-0.1 193.3 0.25 191.68 0.6 189.83 0.6L189.83 0.6Q187.98 0.6 184.73 0.25L184.73 0.25 181.98 0 181.98-35 185.58-35 185.58-24.1Q186.68-24.75 188.23-25.1 189.78-25.45 191.38-25.45L191.38-25.45Q194.13-25.45 196.18-24.5L196.18-24.5Q200.43-22.55 200.43-17.3L200.43-17.3 200.43-7.85ZM196.88-16.75Q196.88-19.55 195.25-20.8 193.63-22.05 191.13-22.05L191.13-22.05Q189.63-22.05 188.13-21.65 186.63-21.25 185.58-20.6L185.58-20.6 185.58-3.1Q187.38-2.75 189.53-2.75L189.53-2.75Q192.78-2.75 194.83-3.93 196.88-5.1 196.88-7.8L196.88-7.8 196.88-16.75ZM224.72-9.2Q224.72-5 222.42-2.25 220.12 0.5 215.47 0.5L215.47 0.5Q210.82 0.5 208.45-2.27 206.07-5.05 206.07-9.2L206.07-9.2 206.07-15.8Q206.07-20.55 208.5-23.08 210.92-25.6 215.47-25.6L215.47-25.6Q219.82-25.6 222.27-22.98 224.72-20.35 224.72-15.8L224.72-15.8 224.72-9.2ZM221.12-15.8Q221.12-22.15 215.47-22.15L215.47-22.15Q212.82-22.15 211.25-20.65 209.67-19.15 209.67-15.8L209.67-15.8 209.67-8.7Q209.67-6 211.25-4.42 212.82-2.85 215.47-2.85L215.47-2.85Q218.12-2.85 219.62-4.42 221.12-6 221.12-8.7L221.12-8.7 221.12-15.8ZM229.52 0L229.52-25.05 233.02-25.05 233.02-23.75Q235.37-25.5 238.57-25.5L238.57-25.5Q240.17-25.5 242.47-25L242.47-25 241.57-21.6Q240.07-22.15 238.42-22.15L238.42-22.15Q236.22-22.15 234.67-21.23 233.12-20.3 233.12-18.55L233.12-18.55 233.12 0 229.52 0ZM259.87 0Q254.47 0.55 252.07 0.55L252.07 0.55Q246.82 0.55 243.72-1.4 240.62-3.35 240.62-8.45L240.62-8.45 240.62-12.6Q240.62-17.55 244.07-19.25L244.07-19.25Q245.72-20.05 248.12-20.05L248.12-20.05Q250.32-20.05 252.57-19.38 254.82-18.7 256.27-17.65L256.27-17.65Q256.27-22.8 249.22-22.8L249.22-22.8 249.47-25.45Q254.27-25.45 256.54-23.93 258.82-22.4 259.34-20.3 259.87-18.2 259.87-14.9L259.87-14.9 259.87 0ZM256.27-14.4Q254.52-15.25 252.42-15.93 250.32-16.6 248.57-16.6L248.57-16.6Q244.22-16.6 244.22-12.3L244.22-12.3 244.22-8.4Q244.22-2.7 252.02-2.7L252.02-2.7Q253.57-2.7 256.27-3.05L256.27-3.05 256.27-14.4ZM269.26 0.65Q266.06 0.05 264.67-1.75 263.26-3.55 263.26-6.6L263.26-6.6 263.26-35 266.92-35 266.92-25.05 272.51-25.05 271.31-21.65 266.92-21.65 266.92-6.6Q266.92-3.05 270.31-2.15L270.31-2.15 269.26 0.65ZM296.21-9.2Q296.21-5 293.91-2.25 291.61 0.5 286.96 0.5L286.96 0.5Q282.31 0.5 279.94-2.27 277.56-5.05 277.56-9.2L277.56-9.2 277.56-15.8Q277.56-20.55 279.99-23.08 282.41-25.6 286.96-25.6L286.96-25.6Q291.31-25.6 293.76-22.98 296.21-20.35 296.21-15.8L296.21-15.8 296.21-9.2ZM292.61-15.8Q292.61-22.15 286.96-22.15L286.96-22.15Q284.31-22.15 282.74-20.65 281.16-19.15 281.16-15.8L281.16-15.8 281.16-8.7Q281.16-6 282.74-4.42 284.31-2.85 286.96-2.85L286.96-2.85Q289.61-2.85 291.11-4.42 292.61-6 292.61-8.7L292.61-8.7 292.61-15.8ZM301.01 0L301.01-25.05 304.51-25.05 304.51-23.75Q306.86-25.5 310.06-25.5L310.06-25.5Q311.66-25.5 313.96-25L313.96-25 313.06-21.6Q311.56-22.15 309.91-22.15L309.91-22.15Q307.71-22.15 306.16-21.23 304.61-20.3 304.61-18.55L304.61-18.55 304.61 0 301.01 0ZM327.91 7.7Q331.26 6.7 331.26 3.05L331.26 3.05 331.26-1.75Q330.36-0.55 328.76 0.03 327.16 0.6 325.16 0.6L325.16 0.6Q320.76 0.6 318.38-1.78 316.01-4.15 316.01-8.8L316.01-8.8 316.01-25.05 319.56-25.05 319.56-8.9Q319.56-2.85 325.16-2.85L325.16-2.85Q331.21-2.85 331.21-8.9L331.21-8.9 331.21-18.15Q331.21-21.1 332.13-22.98 333.06-24.85 335.71-25.5L335.71-25.5 336.86-22.8Q335.81-22.45 335.28-21.5 334.76-20.55 334.76-19.25L334.76-19.25 334.76 3.05Q334.76 6.15 333.43 7.95 332.11 9.75 329.06 10.5L329.06 10.5 327.91 7.7ZM356.35 0L356.35-35 359.95-35 359.95-3.25 374.4-3.25 374.4 0 356.35 0ZM392.95-1.75Q391.15-0.6 388.85 0 386.55 0.6 384.25 0.6L384.25 0.6Q380.55 0.6 378.38-1.23 376.2-3.05 376.2-6.7L376.2-6.7 376.2-16.95Q376.2-21 378.73-23.25 381.25-25.5 385.4-25.5L385.4-25.5Q389.55-25.5 391.88-23.28 394.2-21.05 394.2-17.1L394.2-17.1 394.2-10.25 379.8-9.5 379.8-6.9Q379.8-4.8 381.1-3.75 382.4-2.7 384.65-2.7L384.65-2.7Q387.9-2.7 391.6-4.7L391.6-4.7 392.95-1.75ZM390.55-17.3Q390.55-19.95 388.9-21.08 387.25-22.2 385.35-22.2L385.35-22.2Q382.85-22.2 381.33-20.85 379.8-19.5 379.8-16.9L379.8-16.9 379.8-12.9 390.55-13.45 390.55-17.3ZM414.2 0L414.2-16.75Q414.2-19.45 412.57-20.78 410.95-22.1 408.45-22.1L408.45-22.1Q407.05-22.1 405.6-21.73 404.15-21.35 402.95-20.65L402.95-20.65 402.95 0 399.35 0 399.35-25.05 402.75-25.05 402.8-23.75Q403.95-24.55 405.57-25 407.2-25.45 409-25.45L409-25.45Q411.6-25.45 413.55-24.55L413.55-24.55Q415.55-23.65 416.67-21.85 417.8-20.05 417.8-17.3L417.8-17.3 417.8 0 414.2 0ZM425.05-17.3Q425.05-22.55 429.3-24.5L429.3-24.5Q431.35-25.45 434.1-25.45L434.1-25.45Q435.8-25.45 437.35-25.08 438.9-24.7 439.9-24.05L439.9-24.05 439.9-35 443.5-35 443.5 0 440.75 0.25Q437.5 0.6 435.65 0.6L435.65 0.6Q433.8 0.6 432.17 0.25 430.55-0.1 428.95-0.9L428.95-0.9Q427.15-1.8 426.1-3.55 425.05-5.3 425.05-7.85L425.05-7.85 425.05-17.3ZM439.9-20.6Q438.7-21.25 437.22-21.65 435.75-22.05 434.35-22.05L434.35-22.05Q431.8-22.05 430.2-20.75 428.6-19.45 428.6-16.6L428.6-16.6 428.6-7.7Q428.6-5.1 430.55-3.93 432.5-2.75 435.7-2.75L435.7-2.75Q437.6-2.75 439.9-3.15L439.9-3.15 439.9-20.6ZM451.24-31.4Q450.39-31.4 449.77-32.02 449.14-32.65 449.14-33.45L449.14-33.45Q449.14-34.25 449.77-34.88 450.39-35.5 451.24-35.5L451.24-35.5Q452.04-35.5 452.64-34.9 453.24-34.3 453.24-33.45L453.24-33.45Q453.24-32.6 452.64-32 452.04-31.4 451.24-31.4L451.24-31.4ZM449.34 0L449.34-25.05 452.94-25.05 452.94 0 449.34 0ZM475.29 0L475.29-16.75Q475.29-19.45 473.67-20.78 472.04-22.1 469.54-22.1L469.54-22.1Q468.14-22.1 466.69-21.73 465.24-21.35 464.04-20.65L464.04-20.65 464.04 0 460.44 0 460.44-25.05 463.84-25.05 463.89-23.75Q465.04-24.55 466.67-25 468.29-25.45 470.09-25.45L470.09-25.45Q472.69-25.45 474.64-24.55L474.64-24.55Q476.64-23.65 477.77-21.85 478.89-20.05 478.89-17.3L478.89-17.3 478.89 0 475.29 0ZM495.94 7.7Q499.34 6.75 499.34 2.9L499.34 2.9 499.34-2.25Q497.64 0.6 493.39 0.6L493.39 0.6Q488.99 0.6 486.54-1.8 484.09-4.2 484.09-8.8L484.09-8.8 484.09-16.25Q484.09-20.65 486.66-23.08 489.24-25.5 493.59-25.5L493.59-25.5Q495.59-25.5 497.11-24.83 498.64-24.15 499.49-22.85L499.49-22.85 499.64-25.05 502.94-25.05 502.94 3.2Q502.94 6.35 501.51 8.1 500.09 9.85 496.84 10.5L496.84 10.5 495.94 7.7ZM499.34-16.5Q499.34-19.25 497.66-20.68 495.99-22.1 493.39-22.1L493.39-22.1Q490.94-22.1 489.31-20.58 487.69-19.05 487.69-16L487.69-16 487.69-8.7Q487.69-5.85 489.19-4.33 490.69-2.8 493.39-2.8L493.39-2.8Q496.09-2.8 497.71-4.53 499.34-6.25 499.34-9.5L499.34-9.5 499.34-16.5ZM524.13-9.15Q524.28-7.55 525.31-6.13 526.33-4.7 528.08-3.83 529.83-2.95 532.13-2.95L532.13-2.95Q535.68-2.95 537.96-4.58 540.23-6.2 540.23-9.3L540.23-9.3Q540.23-11.5 539.03-12.98 537.83-14.45 536.08-15.33 534.33-16.2 531.28-17.35L531.28-17.35Q528.03-18.55 526.03-19.58 524.03-20.6 522.66-22.38 521.28-24.15 521.28-26.9L521.28-26.9Q521.28-29.1 522.53-31.08 523.78-33.05 526.31-34.27 528.83-35.5 532.53-35.5L532.53-35.5Q534.98-35.5 536.58-35.15 538.18-34.8 539.83-34L539.83-34 538.73-30.6Q535.63-31.95 532.63-31.95L532.63-31.95Q529.08-31.95 527.06-30.53 525.03-29.1 525.08-26.65L525.08-26.65Q525.08-25.15 526.13-24.08 527.18-23 528.73-22.25 530.28-21.5 532.93-20.55L532.93-20.55Q536.48-19.25 538.73-18.07 540.98-16.9 542.56-14.83 544.13-12.75 544.13-9.65L544.13-9.65Q544.13-5.05 541.21-2.25 538.28 0.55 532.18 0.55L532.18 0.55Q528.48 0.55 525.86-0.83 523.23-2.2 521.86-4.38 520.48-6.55 520.38-8.9L520.38-8.9 524.13-9.15ZM560.33 7.7Q563.68 6.7 563.68 3.05L563.68 3.05 563.68-1.75Q562.78-0.55 561.18 0.03 559.58 0.6 557.58 0.6L557.58 0.6Q553.18 0.6 550.8-1.78 548.43-4.15 548.43-8.8L548.43-8.8 548.43-25.05 551.98-25.05 551.98-8.9Q551.98-2.85 557.58-2.85L557.58-2.85Q563.63-2.85 563.63-8.9L563.63-8.9 563.63-18.15Q563.63-21.1 564.55-22.98 565.48-24.85 568.13-25.5L568.13-25.5 569.28-22.8Q568.23-22.45 567.7-21.5 567.18-20.55 567.18-19.25L567.18-19.25 567.18 3.05Q567.18 6.15 565.85 7.95 564.53 9.75 561.48 10.5L561.48 10.5 560.33 7.7ZM576.28-6.5Q576.48-4.65 578.13-3.63 579.78-2.6 582.03-2.6L582.03-2.6Q584.08-2.6 585.65-3.58 587.23-4.55 587.23-6.5L587.23-6.5Q587.23-7.85 586.45-8.75 585.68-9.65 584.5-10.18 583.33-10.7 581.28-11.4L581.28-11.4Q578.83-12.25 577.35-12.93 575.88-13.6 574.75-14.9 573.63-16.2 573.38-18.25L573.38-18.25 573.33-18.85Q573.33-20.5 574.25-22.08 575.18-23.65 577.1-24.65 579.03-25.65 581.93-25.65L581.93-25.65Q583.53-25.65 584.75-25.33 585.98-25 586.68-24.65 587.38-24.3 587.53-24.2L587.53-24.2 586.38-21.05Q586.23-21.15 585.7-21.45 585.18-21.75 584.18-22.03 583.18-22.3 581.93-22.3L581.93-22.3Q579.58-22.3 578.23-21.25 576.88-20.2 577.08-18.4L577.08-18.4Q577.23-17.05 578.55-16.28 579.88-15.5 582.58-14.55L582.58-14.55Q585.23-13.65 586.9-12.83 588.58-12 589.75-10.48 590.93-8.95 590.93-6.5L590.93-6.5Q590.93-3.4 588.68-1.33 586.43 0.75 582.03 0.75L582.03 0.75Q579.18 0.75 577.1-0.23 575.03-1.2 573.95-2.8 572.88-4.4 572.78-6.35L572.78-6.35 576.28-6.5ZM600.72 0.65Q597.52 0.05 596.12-1.75 594.72-3.55 594.72-6.6L594.72-6.6 594.72-35 598.37-35 598.37-25.05 603.97-25.05 602.77-21.65 598.37-21.65 598.37-6.6Q598.37-3.05 601.77-2.15L601.77-2.15 600.72 0.65ZM623.62-1.75Q621.82-0.6 619.52 0 617.22 0.6 614.92 0.6L614.92 0.6Q611.22 0.6 609.05-1.23 606.87-3.05 606.87-6.7L606.87-6.7 606.87-16.95Q606.87-21 609.4-23.25 611.92-25.5 616.07-25.5L616.07-25.5Q620.22-25.5 622.55-23.28 624.87-21.05 624.87-17.1L624.87-17.1 624.87-10.25 610.47-9.5 610.47-6.9Q610.47-4.8 611.77-3.75 613.07-2.7 615.32-2.7L615.32-2.7Q618.57-2.7 622.27-4.7L622.27-4.7 623.62-1.75ZM621.22-17.3Q621.22-19.95 619.57-21.08 617.92-22.2 616.02-22.2L616.02-22.2Q613.52-22.2 612-20.85 610.47-19.5 610.47-16.9L610.47-16.9 610.47-12.9 621.22-13.45 621.22-17.3ZM658.32 0L658.32-16.55Q658.32-19.45 656.99-20.8 655.67-22.15 653.42-22.15L653.42-22.15Q651.67-22.15 649.52-21.35L649.52-21.35 647.97-20.6Q648.62-19.2 648.62-17.45L648.62-17.45 648.62 0 645.02 0 645.02-16.5Q645.02-19.4 643.54-20.75 642.07-22.1 639.72-22.1L639.72-22.1Q637.07-22.1 634.32-20.6L634.32-20.6 634.32 0 630.72 0 630.72-25.05 634.12-25.05 634.17-23.8Q637.07-25.4 640.07-25.4L640.07-25.4Q643.77-25.4 646.07-23.05L646.07-23.05Q646.77-23.45 648.17-24.15L648.17-24.15Q651.12-25.5 653.87-25.5L653.87-25.5Q657.42-25.5 659.67-23.33 661.92-21.15 661.92-17.3L661.92-17.3 661.92 0 658.32 0Z" opacity="1" transform="matrix(1,0,0,1,0,0)" fill="#7c95df" class="undefined-text-1" data-fill-palette-color="secondary" id="text-1"></path></svg></g></svg></g></svg></g></svg></g></svg></g><defs></defs></svg><rect width="252.9403396883385" height="280" fill="none" stroke="none" visibility="hidden"></rect></g></svg></g></svg>